PathFileType	4	(X/Y/Z)	s06c0203.trc
DataRate	CameraRate	NumFrames	NumMarkers	Units	OrigDataRate	OrigDataStartFrame	OrigNumFrames
200	200	7	48	mm	200	0	2000
Frame#	Time	racr			lacr			c7			jug			rlel			rdr			llel			ldr			s2			lic			ric			lasi			rasi			rpsi			lpsi			rgt			lgt			rth1			rth2			rth3			rth4			rlfc			rmfc			rsh1			rsh2			rsh3			rsh4			rlmal			rcal			rtoe			rmt5			lth1			lth2			lth4			lth3			llfc			lmfc			llmal			lcal			lmt5			lsh1			lsh2			lsh3			lsh4			ltoe			SBIKE			LBIKE			RBIKE			
		X1	Y1	Z1	X2	Y2	Z2	X3	Y3	Z3	X4	Y4	Z4	X5	Y5	Z5	X6	Y6	Z6	X7	Y7	Z7	X8	Y8	Z8	X9	Y9	Z9	X10	Y10	Z10	X11	Y11	Z11	X12	Y12	Z12	X13	Y13	Z13	X14	Y14	Z14	X15	Y15	Z15	X16	Y16	Z16	X17	Y17	Z17	X18	Y18	Z18	X19	Y19	Z19	X20	Y20	Z20	X21	Y21	Z21	X22	Y22	Z22	X23	Y23	Z23	X24	Y24	Z24	X25	Y25	Z25	X26	Y26	Z26	X27	Y27	Z27	X28	Y28	Z28	X29	Y29	Z29	X30	Y30	Z30	X31	Y31	Z31	X32	Y32	Z32	X33	Y33	Z33	X34	Y34	Z34	X35	Y35	Z35	X36	Y36	Z36	X37	Y37	Z37	X38	Y38	Z38	X39	Y39	Z39	X40	Y40	Z40	X41	Y41	Z41	X42	Y42	Z42	X43	Y43	Z43	X44	Y44	Z44	X45	Y45	Z45	X46	Y46	Z46	X47	Y47	Z47	X48	Y48	Z48	
0	0.0000	427.730721	1347.473391	-58.376969	442.565301	1346.495697	-392.918205	417.889106	1447.091955	-222.670924	447.336877	1291.356173	-218.381988	480.357704	1085.640309	18.442093	682.639978	941.552977	-37.380768	475.567750	1079.665470	-467.200695	674.312272	932.514585	-411.858961	-46.971647	1123.876272	-231.019753	139.146706	1096.776851	-390.001067	108.201821	1101.882878	-55.088494	152.723916	1029.597634	-358.945239	139.703573	1056.765422	-86.984915	-20.559848	1162.436990	-195.496696	-17.076373	1160.021139	-258.241136	76.559380	1037.401676	-24.182990	100.509242	1019.622104	-419.407441	183.813824	966.286032	-17.978562	271.389164	942.455593	-23.920896	332.750336	881.659756	-29.109751	285.725130	973.303477	-42.955058	398.007625	796.762443	-50.211321	395.693448	769.397095	-161.180231	365.290794	680.547744	-21.001387	359.874840	594.366109	-38.823106	315.149347	519.605912	-38.969209	380.548945	591.265618	-72.050331	284.682697	439.880126	-41.600367	217.796547	420.561959	-88.933367	485.730334	357.658975	-103.391437	391.404083	352.624798	-27.821993	156.250659	912.502976	-425.406003	229.263182	865.509133	-416.251752	255.381306	889.574074	-403.941470	269.187278	786.176963	-408.536551	300.512977	681.471591	-378.269731	298.506166	665.610467	-261.044359	33.324895	424.255719	-376.111430	-36.875499	449.216830	-330.279969	78.215749	288.127623	-398.436694	230.519814	603.194973	-401.617485	185.501702	530.652774	-384.095390	108.198364	485.703496	-385.184936	203.452994	517.020531	-352.205657	145.455698	234.552822	-339.689124	-204.508236	864.585561	-212.139463	-51.029256	79.954602	-411.333990	-50.899144	79.196189	-14.602344	
1	0.0050	427.702796	1347.461158	-58.404956	442.537359	1346.502707	-392.950803	417.827351	1447.109802	-222.693630	447.298182	1291.418414	-218.421545	480.365617	1085.641524	18.390794	682.625272	941.558583	-37.381757	475.556981	1079.664052	-467.221255	674.332824	932.511155	-411.853949	-46.997927	1123.870462	-231.039968	139.116782	1096.750804	-389.980462	108.178883	1101.865731	-55.145140	152.692186	1029.596927	-358.942585	139.657927	1056.734694	-87.044847	-20.603295	1162.429885	-195.511978	-17.108674	1160.004984	-258.270792	76.558362	1037.394956	-24.196288	100.472154	1019.589169	-419.430282	183.816222	966.306033	-18.037513	271.400258	942.474881	-23.965089	332.785525	881.737068	-29.130831	285.741154	973.367560	-43.063128	398.092929	796.873538	-50.235455	395.712077	769.476811	-161.224171	365.320848	680.614153	-21.020037	359.881223	594.416679	-38.863992	315.148071	519.679158	-39.000537	380.551193	591.352918	-72.067310	284.678541	439.956519	-41.609059	217.790755	420.653927	-88.941009	485.711714	357.734058	-103.390448	391.411136	352.689448	-27.823758	156.207751	912.460454	-425.429289	229.223679	865.469882	-416.290257	255.351531	889.515955	-403.968196	269.121520	786.140869	-408.595892	300.444759	681.400864	-378.293771	298.450719	665.569173	-261.073206	33.288120	424.195756	-376.111029	-36.917926	449.132619	-330.275018	78.207022	288.065815	-398.431456	230.457694	603.144814	-401.635234	185.434768	530.579555	-384.105699	108.139760	485.639761	-385.211821	203.386534	516.949658	-352.225876	145.480027	234.508816	-339.671685	-204.507978	864.582513	-212.139021	-51.020091	79.985171	-411.330258	-50.859651	79.280760	-14.643614	
2	0.0100	427.694610	1347.446554	-58.450997	442.490553	1346.508296	-392.991564	417.805641	1447.117853	-222.757622	447.270504	1291.437992	-218.480036	480.369985	1085.643886	18.369868	682.486109	941.761107	-37.380839	475.572944	1079.664438	-467.231860	674.356355	932.521127	-411.845121	-47.018439	1123.861685	-231.051439	139.072571	1096.755118	-389.963491	108.168708	1101.891222	-55.172656	152.658244	1029.590407	-358.935213	139.652268	1056.758301	-87.065174	-20.619614	1162.410459	-195.539065	-17.135836	1159.989640	-258.279672	76.528300	1037.401983	-24.214516	100.441702	1019.572679	-419.431318	183.809753	966.325626	-18.081773	271.401449	942.528023	-24.024185	332.770272	881.795054	-29.162184	285.734818	973.426350	-43.106155	398.118868	796.925074	-50.264817	395.722223	769.551731	-161.278071	365.305851	680.695693	-21.045696	359.886934	594.491667	-38.885518	315.159400	519.753525	-39.023130	380.564196	591.427394	-72.078645	284.675554	440.059463	-41.620906	217.775039	420.712957	-88.946357	485.703497	357.804754	-103.398121	391.388466	352.749733	-27.825608	156.175154	912.430378	-425.465877	229.182275	865.407637	-416.320795	255.323325	889.467171	-403.989026	269.085937	786.107213	-408.604927	300.374494	681.332465	-378.316833	298.427037	665.512320	-261.101619	33.250221	424.120160	-376.105140	-36.973818	449.050982	-330.278436	78.218300	288.027056	-398.431627	230.389524	603.084606	-401.669812	185.398205	530.521714	-384.103547	108.093575	485.566907	-385.218986	203.361882	516.924231	-352.261324	145.486312	234.463153	-339.675743	-204.513785	864.587452	-212.145893	-51.014904	79.964803	-411.318906	-50.915011	79.199460	-14.612811	
3	0.0150	428.288683	1347.059721	-58.412238	442.474987	1346.527889	-393.010418	417.777441	1447.133299	-222.776232	447.229054	1291.462603	-218.535643	481.025672	1085.470580	18.348092	682.496418	941.755019	-37.379140	475.581296	1079.673716	-467.219135	674.354254	932.636417	-412.206913	-47.652926	1124.266553	-230.637316	139.031502	1096.765587	-389.941137	108.139209	1101.900915	-55.192890	152.637374	1029.598250	-358.970024	139.631303	1056.780359	-87.094392	-21.067351	1162.407699	-195.774941	-17.118685	1160.287259	-258.063037	76.518995	1037.405374	-24.230002	100.333039	1019.441549	-419.237668	183.809142	966.343019	-18.100973	271.884724	943.256220	-23.639120	332.764142	881.765264	-29.143660	285.594496	973.433210	-43.414044	398.157679	796.981291	-50.302485	395.972744	769.337669	-161.406010	365.255309	680.772163	-20.995771	359.860695	594.509340	-38.945417	315.158873	519.809053	-39.030950	380.597283	591.362970	-72.158010	284.212845	440.703719	-41.174261	217.772330	420.777092	-88.954026	485.695134	357.809360	-103.271637	391.377641	352.814340	-27.828692	156.139544	912.383358	-425.480887	229.139341	865.380683	-416.331047	255.265106	889.334876	-403.878279	269.042221	786.033474	-408.618485	300.332612	681.288562	-378.331435	298.364138	665.453407	-261.128411	33.211143	424.058899	-376.106351	-37.007586	448.964568	-330.277191	78.219129	287.981527	-398.437595	230.504762	602.949095	-401.753476	185.212238	530.361687	-384.616014	107.761919	486.185748	-385.528894	202.659574	516.226390	-351.408744	145.722535	235.265854	-338.993397	-204.551949	864.555817	-212.236548	-51.006391	79.982374	-411.323565	-50.899854	79.192132	-14.626686	
4	0.0200	427.915582	1347.440909	-58.403469	442.317980	1346.710865	-392.973183	417.831766	1447.202472	-222.856489	447.001625	1291.881521	-218.348353	480.558897	1086.031678	18.506641	682.473073	941.650342	-37.290695	475.598822	1080.095130	-467.507762	674.339817	932.569043	-412.079259	-48.077057	1123.869230	-230.863762	138.905952	1096.747630	-389.866435	108.062007	1102.258570	-55.168699	152.650647	1029.639017	-358.907109	139.781675	1057.270826	-87.032173	-21.201846	1161.985016	-195.643386	-17.263147	1160.358148	-257.965125	76.468672	1037.646316	-24.384604	100.172702	1019.577561	-419.298354	183.709704	966.808711	-17.930505	271.750101	943.629958	-23.599060	332.677145	882.518453	-28.793636	285.607178	973.490324	-43.352257	398.032262	797.023629	-49.538028	395.827164	769.592034	-161.073284	364.969057	681.226918	-20.870917	359.763569	595.014069	-38.758639	314.811980	520.212771	-38.748932	380.515495	591.684652	-72.091875	283.583488	440.988450	-41.170873	217.851552	420.787209	-89.003155	485.758733	357.891934	-103.224767	391.134940	353.293832	-27.676610	155.982018	912.345741	-425.387937	229.025564	865.534863	-416.425516	255.090629	889.489856	-403.908735	268.973445	785.977209	-408.794895	300.242370	681.417140	-378.466907	297.910602	665.839891	-260.937415	33.232236	424.058562	-376.233272	-37.134149	449.105846	-330.348778	78.152930	287.921345	-398.494721	230.266302	603.184102	-401.763876	185.173472	530.736744	-384.781165	107.444169	486.341700	-385.943069	202.795401	516.274705	-351.607645	145.661995	235.222530	-339.033394	-204.521054	864.474935	-212.288256	-51.190341	80.281487	-411.293241	-51.012745	79.863609	-14.413758	
5	0.0250	427.885398	1347.453503	-58.490016	442.242696	1346.722671	-393.002130	417.798573	1447.208822	-222.868847	446.914196	1291.937351	-218.407198	480.650612	1085.860006	18.426392	682.502998	941.594064	-37.354368	475.456897	1079.893724	-467.303926	674.337144	932.580665	-412.063936	-47.914673	1124.338700	-230.624277	138.842106	1096.996917	-389.750409	108.055749	1102.180850	-55.278735	152.596779	1029.657190	-358.934036	139.591477	1057.065760	-87.144953	-21.080342	1162.402178	-195.777782	-17.295565	1160.336295	-257.965413	76.420144	1037.638583	-24.287650	100.092529	1019.626926	-419.287027	183.752968	966.721347	-18.053279	271.733149	943.623186	-23.662134	332.680548	882.330194	-28.777446	285.547269	973.490063	-43.506023	398.150670	797.182578	-50.094147	395.822127	769.671532	-161.063873	365.032877	681.148514	-20.912519	359.790379	594.846049	-38.840012	314.958430	520.222096	-38.934026	380.486301	591.759129	-72.134747	284.184985	440.849762	-41.156707	217.765556	420.867246	-88.959891	485.740831	357.971938	-103.229325	391.167818	353.244816	-27.699250	155.936453	912.437048	-425.407058	228.942731	865.517186	-416.416847	255.019413	889.490037	-403.940609	268.885153	786.010357	-408.724566	300.068679	681.374463	-378.430327	297.961826	665.653435	-261.038109	33.114699	423.943745	-376.170887	-37.150770	448.917601	-330.381808	78.152736	287.890075	-398.544350	230.104557	603.144113	-401.746054	184.965074	530.818770	-384.635997	107.686630	486.103821	-385.533927	202.751962	516.237358	-351.651370	145.652085	235.202030	-339.054805	-204.527349	864.534201	-212.237514	-51.060766	79.997273	-411.398224	-51.011430	79.678989	-14.604224	
6	0.0300	427.841820	1347.457462	-58.547903	442.194532	1346.766144	-393.038530	417.773492	1447.216343	-222.899121	446.883097	1291.985565	-218.445573	480.660329	1085.902142	18.441257	682.364171	941.829631	-37.363760	475.468525	1079.934149	-467.314533	674.348855	932.591430	-412.061592	-47.962930	1124.377529	-230.610505	138.778575	1097.027228	-389.708480	108.025411	1102.216910	-55.311639	152.564087	1029.679356	-358.926722	139.578468	1057.092350	-87.147158	-21.022946	1162.361749	-195.856317	-17.311178	1160.338729	-257.978838	76.392249	1037.674164	-24.294279	100.028982	1019.625612	-419.290389	183.752173	966.773923	-18.082421	271.735073	943.674379	-23.701723	332.685854	882.382047	-28.786501	285.522225	973.562773	-43.548675	398.174416	797.236499	-50.173671	395.818756	769.719083	-161.088680	365.052940	681.248135	-20.917731	359.774513	594.959005	-38.842039	314.933341	520.334556	-38.943253	380.464327	591.836369	-72.144220	284.196149	440.898539	-41.155674	217.748715	420.920914	-88.942203	485.719139	358.096497	-103.164184	391.140577	353.329132	-27.683874	155.891944	912.418132	-425.406558	228.881861	865.477072	-416.424587	254.963781	889.467989	-403.954763	268.824476	785.981400	-408.720999	299.987414	681.356392	-378.468802	297.902617	665.611313	-261.045214	33.066707	423.872286	-376.144225	-37.160568	448.810059	-330.384740	78.158409	287.859872	-398.594032	230.027935	603.127834	-401.756912	184.917992	530.804677	-384.622612	107.654741	486.056723	-385.519046	202.734424	516.203858	-351.726485	145.670115	235.178037	-339.091873	-204.525643	864.532871	-212.217155	-51.057679	79.962663	-411.428583	-51.022334	79.674289	-14.614543	
